<?xml version="1.0" encoding="UTF-8"?>
<mxfile host="app.diagrams.net" modified="2024-03-19T00:00:00.000Z" agent="Mozilla/5.0" version="21.1.9" type="device">
  <diagram id="caso-de-uso" name="Casos de Uso">
    <mxGraphModel dx="1422" dy="798" grid="1" gridSize="10" guides="1" tooltips="1" connect="1" arrows="1" fold="1" page="1" pageScale="1" pageWidth="827" pageHeight="1169" math="0" shadow="0">
      <root>
        <mxCell id="0"/>
        <mxCell id="1" parent="0"/>
        <mxCell id="2" value="Administrador" style="shape=umlActor;verticalLabelPosition=bottom;verticalAlign=top;html=1;" vertex="1" parent="1">
          <mxGeometry x="40" y="200" width="30" height="60" as="geometry"/>
        </mxCell>
        <mxCell id="3" value="Sistema de Gestão de Olimpíadas" style="shape=rect;html=1;verticalAlign=top;fontStyle=1;whiteSpace=wrap;align=center;" vertex="1" parent="1">
          <mxGeometry x="200" y="40" width="400" height="400" as="geometry"/>
        </mxCell>
        <mxCell id="4" value="Cadastrar Competição" style="ellipse;whiteSpace=wrap;html=1;" vertex="1" parent="1">
          <mxGeometry x="250" y="80" width="140" height="70" as="geometry"/>
        </mxCell>
        <mxCell id="5" value="Inscrever Atleta" style="ellipse;whiteSpace=wrap;html=1;" vertex="1" parent="1">
          <mxGeometry x="250" y="170" width="140" height="70" as="geometry"/>
        </mxCell>
        <mxCell id="6" value="Alocar Local" style="ellipse;whiteSpace=wrap;html=1;" vertex="1" parent="1">
          <mxGeometry x="250" y="260" width="140" height="70" as="geometry"/>
        </mxCell>
        <mxCell id="7" value="Registrar Resultados" style="ellipse;whiteSpace=wrap;html=1;" vertex="1" parent="1">
          <mxGeometry x="250" y="350" width="140" height="70" as="geometry"/>
        </mxCell>
        <mxCell id="8" value="Coordenador de&#xa;Delegação" style="shape=umlActor;verticalLabelPosition=bottom;verticalAlign=top;html=1;" vertex="1" parent="1">
          <mxGeometry x="650" y="180" width="30" height="60" as="geometry"/>
        </mxCell>
        <mxCell id="9" value="Juiz" style="shape=umlActor;verticalLabelPosition=bottom;verticalAlign=top;html=1;" vertex="1" parent="1">
          <mxGeometry x="650" y="300" width="30" height="60" as="geometry"/>
        </mxCell>
        <mxCell id="10" value="" style="endArrow=none;html=1;rounded=0;" edge="1" parent="1" source="2" target="4">
          <mxGeometry relative="1" as="geometry"/>
        </mxCell>
        <mxCell id="11" value="" style="endArrow=none;html=1;rounded=0;" edge="1" parent="1" source="8" target="5">
          <mxGeometry relative="1" as="geometry"/>
        </mxCell>
        <mxCell id="12" value="" style="endArrow=none;html=1;rounded=0;" edge="1" parent="1" source="9" target="7">
          <mxGeometry relative="1" as="geometry"/>
        </mxCell>
      </root>
    </mxGraphModel>
  </diagram>
</mxfile> 